<svg width="100%" height="100%" viewBox="0 0 24 24" fill="none" xmlns="http://www.w3.org/2000/svg">
<g opacity="0.75">
<path d="M18.8818 5.12968C18.7808 5.02843 18.6608 4.9481 18.5286 4.89329C18.3965 4.83848 18.2549 4.81026 18.1118 4.81026C17.9688 4.81026 17.8271 4.83848 17.695 4.89329C17.5629 4.9481 17.4428 5.02843 17.3418 5.12968L12.0008 10.4598L6.65978 5.11876C6.55866 5.01764 6.43861 4.93742 6.30649 4.8827C6.17437 4.82797 6.03276 4.7998 5.88976 4.7998C5.74675 4.7998 5.60514 4.82797 5.47302 4.8827C5.3409 4.93742 5.22086 5.01764 5.11973 5.11876C5.01861 5.21988 4.9384 5.33993 4.88367 5.47205C4.82895 5.60417 4.80078 5.74577 4.80078 5.88878C4.80078 6.03179 4.82895 6.17339 4.88367 6.30551C4.9384 6.43763 5.01861 6.55768 5.11973 6.6588L10.4607 11.9998L5.11973 17.3408C5.01861 17.4419 4.9384 17.562 4.88367 17.6941C4.82895 17.8262 4.80078 17.9678 4.80078 18.1108C4.80078 18.2538 4.82895 18.3954 4.88367 18.5276C4.9384 18.6597 5.01861 18.7797 5.11973 18.8808C5.22086 18.982 5.3409 19.0622 5.47302 19.1169C5.60514 19.1716 5.74675 19.1998 5.88976 19.1998C6.03276 19.1998 6.17437 19.1716 6.30649 19.1169C6.43861 19.0622 6.55866 18.982 6.65978 18.8808L12.0008 13.5398L17.3418 18.8808C17.4429 18.982 17.563 19.0622 17.6951 19.1169C17.8272 19.1716 17.9688 19.1998 18.1118 19.1998C18.2548 19.1998 18.3964 19.1716 18.5285 19.1169C18.6607 19.0622 18.7807 18.982 18.8818 18.8808C18.9829 18.7797 19.0632 18.6597 19.1179 18.5276C19.1726 18.3954 19.2008 18.2538 19.2008 18.1108C19.2008 17.9678 19.1726 17.8262 19.1179 17.6941C19.0632 17.562 18.9829 17.4419 18.8818 17.3408L13.5408 11.9998L18.8818 6.6588C19.2969 6.24375 19.2969 5.54473 18.8818 5.12968Z" fill="white"/>
</g>
</svg>
