<svg width="100%" height="100%" viewBox="0 0 73 73" fill="none" xmlns="http://www.w3.org/2000/svg">
<g clip-path="url(#clip0_14_18)">
<path d="M40.29 53.5L40.49 50.44L40.03 48.34L40.16 46.24L39.16 45.34L36.89 45.09L34.62 45.39L32.35 45.08L31.41 46.32L31.11 48.39V50.46L31.6 52.53L31.53 53.73H30.44L28.56 53.6L26.68 53.35L24.8 53.53L22.92 53.49L21.92 52.55L21.9 50.46L22.11 48.37L21.56 46.28L21.51 44.19L21.99 42.1V40.01L21.83 37.92V35.83L22.26 34.72L24.03 33.33L25.76 31.88L27.47 30.42L28.91 28.66L30.74 27.33L32.35 25.75L34.31 24.56L35.75 22.76L37.26 24.41L38.65 25.88L40.35 27L41.74 28.39L43.29 29.6L44.75 30.91L46.09 32.36L47.88 33.31L49.15 34.83L49.99 35.99L49.56 38.04L49.79 40.08L49.72 42.12L49.6 44.16L49.5 46.2L49.88 48.24L49.58 50.28L49.55 52.32L48.51 53.65L46.03 53.46L43.55 53.59L41.07 53.25L40.29 53.46V53.5Z" fill="white"/>
<path d="M35.75 16.65L37.53 17.59L39.18 19.05L40.84 20.5L42.21 22.27L43.78 23.82L45.5 25.2L47.38 26.4L49.02 27.87L50.45 29.58L52.58 30.51L54.21 32L55.49 33.68L53.67 36.3L52.2 34.35L50.26 33.29L48.98 31.49L47.22 30.22L45.34 29.08L43.77 27.6L42.17 26.16L40.57 24.72L39.24 22.98L37.39 21.82L35.78 20.54L34.23 21.89L32.46 23.14L30.73 24.44L29.29 26.07L27.78 27.61L26.19 29.06L24.17 30.04L22.59 31.5L21.42 33.43L19.32 34.32L17.98 35.87L15.51 33.76L17.79 32.55L19.19 30.81L20.96 29.48L22.75 28.17L24.31 26.61L25.78 24.95L27.48 23.54L28.89 21.8L30.84 20.67L32.59 19.31L34.14 17.74L35.8 16.65H35.75Z" fill="white"/>
<path d="M21.82 26.17L21.8601 23.74L21.8 21.32L21.84 18.92L24.2701 18.83L26.7001 18.93L26.68 21.56L26.5301 21.94L24.91 23.29L23.3601 24.72L21.81 26.16L21.82 26.17Z" fill="white"/>
<path d="M36.25 70.5C55.1658 70.5 70.5 55.1658 70.5 36.25C70.5 17.3342 55.1658 2 36.25 2C17.3342 2 2 17.3342 2 36.25C2 55.1658 17.3342 70.5 36.25 70.5Z" stroke="white" stroke-width="4" stroke-miterlimit="10"/>
</g>
<defs>
<clipPath id="clip0_14_18">
<rect width="72.5" height="72.5" fill="white"/>
</clipPath>
</defs>
</svg>
