<svg width="107" height="107" viewBox="0 0 107 107" fill="none" xmlns="http://www.w3.org/2000/svg">
<path d="M94.99 44.12C94.86 42.34 93.61 42.67 93.61 42.67C93.61 42.67 83.14 40.76 73.98 41.22C61.2 42.01 61.66 42.6 59.09 44.51C56.52 46.42 56.26 45.63 56.26 45.63L53.76 45.58H53.43H53.1L50.6 45.63C50.6 45.63 50.34 46.42 47.77 44.51C45.2 42.6 45.66 42.01 32.88 41.22C23.72 40.76 13.25 42.67 13.25 42.67C13.25 42.67 12 42.34 11.87 44.12C11.74 45.9 11.94 46.95 11.94 46.95C11.94 46.95 12.01 48.4 13.79 48.86C15.57 49.32 15.57 50.97 15.83 52.35C16.09 53.73 18.2 63.68 21.63 66.71C25.05 69.74 31.12 69.01 33.36 69.01C35.6 69.01 42.12 68.94 45.22 63.8C48.32 58.66 49.57 54.71 49.9 53.52C50.23 52.33 50.49 49.77 53.46 49.77C56.43 49.77 56.69 52.34 57.02 53.52C57.35 54.7 58.6 58.66 61.7 63.8C64.8 68.94 71.32 69.01 73.56 69.01C75.8 69.01 81.86 69.74 85.29 66.71C88.71 63.68 90.82 53.73 91.09 52.35C91.35 50.97 91.35 49.32 93.13 48.86C94.91 48.4 94.98 46.95 94.98 46.95C94.98 46.95 95.18 45.9 95.05 44.12H94.99ZM44.52 60.79C40.57 69.62 31.61 67.44 29.17 67.44C26.73 67.44 22.98 66.65 20.8 62.23C18.63 57.82 17.11 50.3 20.54 46.35C22.1 44.55 27 43.52 33.65 43.78C40.3 44.04 43.86 44.64 45.58 46.88C47.29 49.12 48.48 51.95 44.53 60.78L44.52 60.79ZM86.03 62.23C83.86 66.64 80.1 67.44 77.66 67.44C75.22 67.44 66.26 69.61 62.31 60.79C58.36 51.96 59.54 49.13 61.26 46.89C62.97 44.65 66.53 44.06 73.19 43.79C79.85 43.52 84.75 44.56 86.3 46.36C89.73 50.31 88.21 57.82 86.04 62.24L86.03 62.23Z" fill="white"/>
<path d="M53.42 104.84C81.8185 104.84 104.84 81.8185 104.84 53.42C104.84 25.0215 81.8185 2 53.42 2C25.0215 2 2 25.0215 2 53.42C2 81.8185 25.0215 104.84 53.42 104.84Z" stroke="white" stroke-width="4" stroke-miterlimit="10"/>
</svg>
