<svg width="100%" height="100%" viewBox="0 0 84 84" fill="none" xmlns="http://www.w3.org/2000/svg">
<g clip-path="url(#clip0_14_24)">
<path d="M41.76 82.52C64.2711 82.52 82.52 64.2711 82.52 41.76C82.52 19.2489 64.2711 1 41.76 1C19.2489 1 1 19.2489 1 41.76C1 64.2711 19.2489 82.52 41.76 82.52Z" stroke="#5CFF85" stroke-width="2"/>
<path d="M41.76 78.93C62.2884 78.93 78.93 62.2884 78.93 41.76C78.93 21.2315 62.2884 4.58997 41.76 4.58997C21.2315 4.58997 4.58997 21.2315 4.58997 41.76C4.58997 62.2884 21.2315 78.93 41.76 78.93Z" fill="#5CFF85"/>
<path d="M50.5799 41.51V25.58C50.5799 20.72 46.6099 16.76 41.7599 16.76C36.9099 16.76 32.9399 20.73 32.9399 25.58V41.51C32.9399 43.94 33.9299 46.14 35.5299 47.74C41.1099 53.32 50.5799 49.28 50.5799 41.51ZM36.2799 25.57C36.2799 22.56 38.7499 20.09 41.7599 20.09C44.7699 20.09 47.2399 22.56 47.2399 25.57V41.51C47.2399 43.02 46.6199 44.39 45.6299 45.38C42.1499 48.86 36.2799 46.32 36.2799 41.51V25.57Z" fill="#0B1926"/>
<path d="M53.76 42.94C53.4 45.94 51.93 48.62 49.77 50.53C42.43 57.05 30.91 52.48 29.78 42.94C29.52 40.76 26.21 41.15 26.47 43.33C27.31 50.41 33.03 56.05 40.1 56.82V65.12C40.1 67.32 43.44 67.32 43.44 65.12V56.82C50.51 56.05 56.23 50.41 57.07 43.33C57.33 41.15 54.02 40.76 53.76 42.94Z" fill="#0B1926"/>
</g>
<defs>
<clipPath id="clip0_14_24">
<rect width="83.53" height="83.53" fill="white"/>
</clipPath>
</defs>
</svg>
