<svg width="100%" height="100%" viewBox="0 0 71 71" fill="none" xmlns="http://www.w3.org/2000/svg">
<g clip-path="url(#clip0_14_32)">
<path d="M35.3601 30.5L30.6101 32.69L28.5601 37.46L30.5401 42.3L35.3701 44.36L40.2001 42.31L42.1801 37.46L40.2501 32.57L35.3701 30.51L35.3601 30.5Z" fill="white"/>
<path d="M43.34 26.03L41.75 21.66L37.51 21.84L33.22 21.49L29.09 21.82L27.15 25.67L22.74 25.75H18.24L18.57 30.44L18.59 35.12L18.21 39.8L18.52 44.48L18.15 49.25L22.53 48.88L26.8 49.17L31.07 49.09L35.34 48.87L39.61 49.34L43.88 49.45L48.15 49.3L52.56 49.28L52.23 44.48L52.08 39.8L52.73 35.12L52.4 30.44L52.27 25.9L47.95 25.97L43.29 26.03H43.34ZM25.61 30.92L20.44 30.71L20.37 27.9L25.42 28.21L25.61 30.92ZM35.36 47.3L30.58 45.77L26.93 42.34L25.97 37.46L26.9 32.56L30.67 29.32L35.35 27.96L40.07 29.25L43.83 32.55L45.17 37.46L43.52 42.19L40.22 45.92L35.35 47.29L35.36 47.3Z" fill="white"/>
<path d="M35.46 68.92C53.9394 68.92 68.92 53.9394 68.92 35.46C68.92 16.9806 53.9394 2 35.46 2C16.9806 2 2 16.9806 2 35.46C2 53.9394 16.9806 68.92 35.46 68.92Z" stroke="white" stroke-width="4" stroke-miterlimit="10"/>
</g>
<defs>
<clipPath id="clip0_14_32">
<rect width="70.93" height="70.93" fill="white"/>
</clipPath>
</defs>
</svg>
